<svg xmlns="http://www.w3.org/2000/svg" version="1.1" xmlns:xlink="http://www.w3.org/1999/xlink" xmlns:svgjs="http://svgjs.dev/svgjs" viewBox="0 0 800 800"><defs><linearGradient x1="50%" y1="0%" x2="50%" y2="100%" id="cccoil-grad"><stop stop-color="hsl(206, 75%, 49%)" stop-opacity="1" offset="0%"></stop><stop stop-color="hsl(331, 90%, 56%)" stop-opacity="1" offset="100%"></stop></linearGradient></defs><g stroke="url(#cccoil-grad)" fill="none" stroke-linecap="round"><circle r="600" cx="400" cy="400" stroke-width="7.5" stroke-dasharray="3770 3770" transform="rotate(360, 400, 400)" opacity="0.05"></circle><circle r="576" cx="400" cy="400" stroke-width="7.5" stroke-dasharray="3468 3619" transform="rotate(345, 400, 400)" opacity="0.09"></circle><circle r="552" cx="400" cy="400" stroke-width="7.5" stroke-dasharray="3179 3468" transform="rotate(330, 400, 400)" opacity="0.13"></circle><circle r="528" cx="400" cy="400" stroke-width="7.5" stroke-dasharray="2903 3318" transform="rotate(315, 400, 400)" opacity="0.17"></circle><circle r="504" cx="400" cy="400" stroke-width="7.5" stroke-dasharray="2639 3167" transform="rotate(300, 400, 400)" opacity="0.21"></circle><circle r="480" cx="400" cy="400" stroke-width="7.5" stroke-dasharray="2388 3016" transform="rotate(285, 400, 400)" opacity="0.25"></circle><circle r="456" cx="400" cy="400" stroke-width="7.5" stroke-dasharray="2149 2865" transform="rotate(270, 400, 400)" opacity="0.29"></circle><circle r="432" cx="400" cy="400" stroke-width="7.5" stroke-dasharray="1923 2714" transform="rotate(255, 400, 400)" opacity="0.33"></circle><circle r="408" cx="400" cy="400" stroke-width="7.5" stroke-dasharray="1709 2564" transform="rotate(240, 400, 400)" opacity="0.37"></circle><circle r="384" cx="400" cy="400" stroke-width="7.5" stroke-dasharray="1508 2413" transform="rotate(225, 400, 400)" opacity="0.41"></circle><circle r="360" cx="400" cy="400" stroke-width="7.5" stroke-dasharray="1319 2262" transform="rotate(210, 400, 400)" opacity="0.45"></circle><circle r="336" cx="400" cy="400" stroke-width="7.5" stroke-dasharray="1144 2111" transform="rotate(195, 400, 400)" opacity="0.49"></circle><circle r="312" cx="400" cy="400" stroke-width="7.5" stroke-dasharray="980 1960" transform="rotate(180, 400, 400)" opacity="0.53"></circle><circle r="288" cx="400" cy="400" stroke-width="7.5" stroke-dasharray="829 1810" transform="rotate(165, 400, 400)" opacity="0.56"></circle><circle r="264" cx="400" cy="400" stroke-width="7.5" stroke-dasharray="691 1659" transform="rotate(150, 400, 400)" opacity="0.60"></circle><circle r="240" cx="400" cy="400" stroke-width="7.5" stroke-dasharray="565 1508" transform="rotate(135, 400, 400)" opacity="0.64"></circle><circle r="216" cx="400" cy="400" stroke-width="7.5" stroke-dasharray="452 1357" transform="rotate(120, 400, 400)" opacity="0.68"></circle><circle r="192" cx="400" cy="400" stroke-width="7.5" stroke-dasharray="352 1206" transform="rotate(105, 400, 400)" opacity="0.72"></circle><circle r="168" cx="400" cy="400" stroke-width="7.5" stroke-dasharray="264 1056" transform="rotate(90, 400, 400)" opacity="0.76"></circle><circle r="144" cx="400" cy="400" stroke-width="7.5" stroke-dasharray="188 905" transform="rotate(75, 400, 400)" opacity="0.80"></circle><circle r="120" cx="400" cy="400" stroke-width="7.5" stroke-dasharray="126 754" transform="rotate(60, 400, 400)" opacity="0.84"></circle><circle r="96" cx="400" cy="400" stroke-width="7.5" stroke-dasharray="75 603" transform="rotate(45, 400, 400)" opacity="0.88"></circle><circle r="72" cx="400" cy="400" stroke-width="7.5" stroke-dasharray="38 452" transform="rotate(30, 400, 400)" opacity="0.92"></circle><circle r="48" cx="400" cy="400" stroke-width="7.5" stroke-dasharray="13 302" transform="rotate(15, 400, 400)" opacity="0.96"></circle><circle r="24" cx="400" cy="400" stroke-width="7.5" stroke-dasharray="0 151" opacity="1.00"></circle></g></svg>