<svg xmlns="http://www.w3.org/2000/svg" xmlns:xlink="http://www.w3.org/1999/xlink" width="1024" zoomAndPan="magnify" viewBox="0 0 768 767.999994" height="1024" preserveAspectRatio="xMidYMid meet" version="1.0"><path fill="#d9d9d9" d="M 157.089844 180.238281 L 157.089844 561.546875 L 165.816406 552.816406 L 165.816406 180.246094 C 165.816406 177.578125 167.964844 175.4375 170.625 175.4375 L 543.203125 175.4375 L 551.933594 166.703125 L 170.625 166.703125 C 163.160156 166.703125 157.089844 172.773438 157.089844 180.238281 " fill-opacity="1" fill-rule="nonzero"/><path fill="#d9d9d9" d="M 610.910156 587.746094 L 610.910156 206.453125 L 602.183594 215.183594 L 602.183594 587.753906 C 602.183594 590.414062 600.027344 592.566406 597.375 592.566406 L 224.796875 592.566406 L 216.066406 601.296875 L 597.375 601.296875 C 604.839844 601.296875 610.910156 595.214844 610.910156 587.746094 " fill-opacity="1" fill-rule="nonzero"/><path fill="#d9d9d9" d="M 255.574219 219.109375 C 259.214844 219.109375 262.179688 216.136719 262.179688 212.496094 C 262.179688 208.855469 259.214844 205.886719 255.574219 205.886719 C 251.925781 205.886719 248.960938 208.855469 248.960938 212.496094 C 248.960938 216.136719 251.925781 219.109375 255.574219 219.109375 " fill-opacity="1" fill-rule="nonzero"/><path fill="#d9d9d9" d="M 306.574219 374.480469 C 305.3125 374.480469 307.433594 373.199219 296.679688 391.144531 C 268.246094 430.664062 269.066406 428.980469 269.066406 429.871094 L 288.761719 429.871094 L 306.046875 412.59375 C 306.011719 389.589844 305.992188 384.339844 306.574219 374.480469 " fill-opacity="1" fill-rule="nonzero"/><path fill="#d9d9d9" d="M 204.886719 196.269531 C 213.839844 196.269531 221.113281 203.550781 221.113281 212.496094 C 221.113281 221.449219 213.839844 228.730469 204.886719 228.730469 C 195.933594 228.730469 188.652344 221.449219 188.652344 212.496094 C 188.652344 203.550781 195.933594 196.269531 204.886719 196.269531 Z M 255.574219 196.269531 C 264.519531 196.269531 271.800781 203.550781 271.800781 212.496094 C 271.800781 221.449219 264.519531 228.730469 255.574219 228.730469 C 246.621094 228.730469 239.34375 221.449219 239.34375 212.496094 C 239.34375 203.550781 246.621094 196.269531 255.574219 196.269531 Z M 306.265625 196.269531 C 315.21875 196.269531 322.492188 203.550781 322.492188 212.496094 C 322.492188 221.449219 315.21875 228.730469 306.265625 228.730469 C 297.3125 228.730469 290.039062 221.449219 290.039062 212.496094 C 290.039062 203.550781 297.3125 196.269531 306.265625 196.269531 Z M 175.433594 239.746094 L 478.886719 239.746094 L 533.585938 185.050781 L 175.433594 185.050781 L 175.433594 239.746094 " fill-opacity="1" fill-rule="nonzero"/><path fill="#d9d9d9" d="M 592.5625 224.800781 L 577.617188 239.746094 L 592.5625 239.746094 Z M 592.5625 224.800781 " fill-opacity="1" fill-rule="nonzero"/><path fill="#d9d9d9" d="M 474.789062 391.144531 C 446.367188 430.664062 447.175781 428.980469 447.175781 429.871094 L 484.164062 429.871094 C 484.164062 391.191406 483.980469 386.460938 484.691406 374.480469 C 483.429688 374.480469 485.550781 373.199219 474.789062 391.144531 " fill-opacity="1" fill-rule="nonzero"/><path fill="#d9d9d9" d="M 175.433594 543.203125 L 276.777344 441.859375 L 253.617188 441.859375 L 253.617188 431.789062 L 303.96875 359.71875 L 320.46875 359.71875 L 320.46875 398.167969 L 469.269531 249.367188 L 175.433594 249.367188 L 175.433594 543.203125 " fill-opacity="1" fill-rule="nonzero"/><path fill="#d9d9d9" d="M 514.378906 441.859375 L 498.578125 441.859375 L 498.578125 472.59375 L 484.164062 472.59375 L 484.164062 441.859375 L 431.726562 441.859375 L 431.726562 431.789062 L 482.085938 359.71875 L 498.578125 359.71875 L 498.578125 429.871094 L 514.378906 429.871094 Z M 592.5625 249.367188 L 567.996094 249.367188 L 421.261719 396.101562 C 422.238281 401.871094 422.890625 408.039062 422.890625 414.949219 C 422.890625 453.3125 408.648438 474.503906 383.644531 474.503906 C 372.859375 474.503906 363.8125 469.488281 357.300781 460.0625 L 234.414062 582.949219 L 592.5625 582.949219 L 592.5625 249.367188 " fill-opacity="1" fill-rule="nonzero"/><path fill="#d9d9d9" d="M 384.519531 462.695312 C 400.136719 462.695312 407.617188 444.457031 407.617188 415.636719 C 407.617188 413.644531 407.503906 411.824219 407.425781 409.9375 L 367.507812 449.855469 C 371.515625 458.183594 377.34375 462.695312 384.519531 462.695312 " fill-opacity="1" fill-rule="nonzero"/><path fill="#d9d9d9" d="M 204.886719 219.109375 C 208.527344 219.109375 211.492188 216.136719 211.492188 212.496094 C 211.492188 208.855469 208.527344 205.886719 204.886719 205.886719 C 201.246094 205.886719 198.28125 208.855469 198.28125 212.496094 C 198.28125 216.136719 201.246094 219.109375 204.886719 219.109375 " fill-opacity="1" fill-rule="nonzero"/><path fill="#d9d9d9" d="M 306.265625 219.109375 C 309.90625 219.109375 312.878906 216.136719 312.878906 212.496094 C 312.878906 208.855469 309.90625 205.886719 306.265625 205.886719 C 302.617188 205.886719 299.652344 208.855469 299.652344 212.496094 C 299.652344 216.136719 302.617188 219.109375 306.265625 219.109375 " fill-opacity="1" fill-rule="nonzero"/><path fill="#d9d9d9" d="M 384 733.089844 C 294.027344 733.089844 212.160156 698.585938 150.199219 642.484375 L 642.484375 150.199219 C 698.585938 212.160156 733.089844 294.027344 733.089844 384 C 733.089844 576.492188 576.492188 733.089844 384 733.089844 Z M 384 34.910156 C 473.972656 34.910156 555.839844 69.414062 617.800781 125.515625 L 125.515625 617.800781 C 69.414062 555.839844 34.910156 473.972656 34.910156 384 C 34.910156 191.507812 191.507812 34.910156 384 34.910156 Z M 384 0 C 172.261719 0 0 172.261719 0 384 C 0 595.738281 172.261719 768 384 768 C 595.738281 768 768 595.738281 768 384 C 768 172.261719 595.738281 0 384 0 " fill-opacity="1" fill-rule="nonzero"/></svg>